<?xml version="1.0" encoding="UTF-8"?>
<!DOCTYPE svg PUBLIC "-//W3C//DTD SVG 1.1//EN" "http://www.w3.org/Graphics/SVG/1.1/DTD/svg11.dtd">
<svg xmlns="http://www.w3.org/2000/svg" version="1.1" width="767px" height="767px" style="shape-rendering:geometricPrecision; text-rendering:geometricPrecision; image-rendering:optimizeQuality; fill-rule:evenodd; clip-rule:evenodd" xmlns:xlink="http://www.w3.org/1999/xlink">
<g><path style="opacity:0.902" fill="#000000" d="M 439.5,333.5 C 441.552,332.947 441.885,331.947 440.5,330.5C 442.596,321.227 447.929,314.393 456.5,310C 460.689,304.813 465.189,299.98 470,295.5C 483.315,277.189 495.815,258.356 507.5,239C 508.449,238.383 509.282,238.549 510,239.5C 510.667,240.833 510.667,242.167 510,243.5C 503.986,250.86 498.986,258.86 495,267.5C 487.217,277.286 480.217,287.62 474,298.5C 468.86,302.635 464.86,307.635 462,313.5C 456.978,317.022 452.811,321.355 449.5,326.5C 449.833,326.833 450.167,327.167 450.5,327.5C 469.666,315.416 489,303.582 508.5,292C 510.743,289.512 512.743,286.846 514.5,284C 524.446,278.72 531.613,270.887 536,260.5C 545.192,251.569 554.692,243.069 564.5,235C 575.127,229.013 586.46,225.013 598.5,223C 600.443,220.051 602.443,219.884 604.5,222.5C 603.5,223.833 602.5,225.167 601.5,226.5C 591.206,228.74 581.206,231.907 571.5,236C 568.046,239.448 564.046,242.115 559.5,244C 553.25,250.588 546.75,256.754 540,262.5C 534.475,273.524 526.642,282.524 516.5,289.5C 517.167,289.833 517.833,290.167 518.5,290.5C 528.977,289.397 538.977,286.564 548.5,282C 557.5,276.333 566.5,270.667 575.5,265C 581.421,262.471 587.421,260.137 593.5,258C 595.018,256.152 596.851,254.652 599,253.5C 600.767,256.866 599.934,259.699 596.5,262C 581.535,265.983 568.201,272.983 556.5,283C 551.167,285.333 545.833,287.667 540.5,290C 528.777,292.471 517.11,295.138 505.5,298C 490.612,306.937 476.278,316.603 462.5,327C 476.618,332.555 491.284,334.889 506.5,334C 528.621,326.611 548.621,315.611 566.5,301C 570.916,298.62 575.582,297.12 580.5,296.5C 585.414,296.074 586.414,297.574 583.5,301C 581.189,300.845 578.856,300.845 576.5,301C 573.833,302.333 571.167,303.667 568.5,305C 559.872,310.997 551.205,316.997 542.5,323C 550.289,324.925 558.289,325.925 566.5,326C 568.107,327.049 568.773,328.549 568.5,330.5C 556.455,329.753 544.455,328.919 532.5,328C 524.916,331.528 517.249,334.861 509.5,338C 506.592,338.993 503.592,339.493 500.5,339.5C 489.666,338.639 479,336.806 468.5,334C 459.679,332.111 451.679,333.778 444.5,339C 435.126,348.371 427.293,358.871 421,370.5C 417.66,379.843 414.327,389.177 411,398.5C 407.975,402.571 406.641,407.238 407,412.5C 406.171,444.405 406.338,476.238 407.5,508C 406.762,528.936 406.096,549.936 405.5,571C 405.806,576.896 406.473,582.729 407.5,588.5C 406.167,605.5 406.167,622.5 407.5,639.5C 405.424,654.948 405.091,670.448 406.5,686C 405.807,690.81 405.307,695.643 405,700.5C 401.917,703.908 399.251,707.575 397,711.5C 393.991,725.809 393.825,740.142 396.5,754.5C 396.923,757.318 395.923,759.318 393.5,760.5C 392,760.547 391,759.881 390.5,758.5C 390.712,745.287 390.712,732.121 390.5,719C 391.273,712.386 393.773,706.553 398,701.5C 398.773,689.271 398.273,677.104 396.5,665C 398.044,653.239 398.711,641.405 398.5,629.5C 398.333,620.833 398.167,612.167 398,603.5C 397.598,602.128 397.098,600.795 396.5,599.5C 398.021,595.155 398.687,590.655 398.5,586C 398.33,552.15 398.33,518.317 398.5,484.5C 398.333,475.5 398.167,466.5 398,457.5C 395.362,453.194 393.862,448.527 393.5,443.5C 395.37,431.582 395.87,419.582 395,407.5C 394.691,406.234 394.191,405.067 393.5,404C 394.724,401.61 395.224,399.11 395,396.5C 392.401,392.122 390.401,387.455 389,382.5C 376.751,367.861 363.918,353.694 350.5,340C 334.888,335.635 319.055,334.135 303,335.5C 297.001,334.837 291.167,333.337 285.5,331C 284.167,329.667 282.833,328.333 281.5,327C 271.011,326.943 260.678,325.777 250.5,323.5C 247.468,323.597 244.468,323.931 241.5,324.5C 238.165,322.863 237.832,320.863 240.5,318.5C 250.188,319.168 259.854,320.168 269.5,321.5C 271.5,321.167 273.5,320.833 275.5,320.5C 272.591,317.423 269.258,314.923 265.5,313C 261.176,306.043 255.509,300.376 248.5,296C 238.053,296.011 227.72,295.011 217.5,293C 209.422,292.401 201.422,292.401 193.5,293C 192.167,291.667 192.167,290.333 193.5,289C 200.785,287.586 208.118,287.253 215.5,288C 224.704,290.344 234.037,291.011 243.5,290C 243.957,289.586 244.291,289.086 244.5,288.5C 242.478,285.644 239.978,283.311 237,281.5C 236.208,279.413 235.041,277.579 233.5,276C 217.705,267.798 201.372,261.298 184.5,256.5C 184.709,255.914 185.043,255.414 185.5,255C 188.167,254.333 190.833,254.333 193.5,255C 207.043,259.438 220.376,264.438 233.5,270C 241.304,279.303 249.971,287.803 259.5,295.5C 262.866,299.936 265.866,304.602 268.5,309.5C 273.901,314.867 280.234,318.701 287.5,321C 289.208,323.043 291.208,324.71 293.5,326C 306.674,329.114 320.007,330.114 333.5,329C 334.517,327.951 334.684,326.784 334,325.5C 327.167,320 320.333,314.5 313.5,309C 309.879,304.57 306.546,299.904 303.5,295C 297.073,295.659 292.573,293.159 290,287.5C 288.421,285.959 286.587,284.792 284.5,284C 274.705,280.974 264.705,278.974 254.5,278C 251.684,274.601 252.684,273.101 257.5,273.5C 269.655,274.963 281.322,278.129 292.5,283C 294.373,284.704 296.04,286.537 297.5,288.5C 298.641,289.339 299.974,290.006 301.5,290.5C 301.833,289.833 302.167,289.167 302.5,288.5C 302.253,287.287 301.586,286.62 300.5,286.5C 299.157,282.291 297.157,278.457 294.5,275C 284.965,269.065 275.965,262.398 267.5,255C 247.507,244.778 226.84,236.112 205.5,229C 202.872,227.374 200.539,225.374 198.5,223C 191.913,221.788 185.246,221.121 178.5,221C 177.167,220 177.167,219 178.5,218C 185.833,217.333 193.167,217.333 200.5,218C 202.557,221.723 205.557,224.39 209.5,226C 229.492,232.441 248.825,240.441 267.5,250C 273.719,255.694 280.552,260.527 288,264.5C 287.971,259.037 286.971,253.703 285,248.5C 282.481,243.956 280.148,239.289 278,234.5C 274.072,231.117 270.239,227.617 266.5,224C 255.35,219.257 244.35,214.257 233.5,209C 230.184,205.354 226.518,202.021 222.5,199C 216.03,196.535 210.03,193.201 204.5,189C 201.5,188.667 198.5,188.333 195.5,188C 194.305,184.697 195.638,183.197 199.5,183.5C 205.725,184.182 211.058,186.682 215.5,191C 220.003,193.39 224.669,195.39 229.5,197C 230.89,200.803 233.223,203.803 236.5,206C 247.75,211.194 259.084,216.194 270.5,221C 271.305,222.972 272.639,224.472 274.5,225.5C 275.659,221.878 275.825,218.211 275,214.5C 271.691,205.926 268.691,197.26 266,188.5C 263.799,185.879 261.965,183.046 260.5,180C 255.034,176.527 249.034,174.527 242.5,174C 235.128,170.241 227.462,167.241 219.5,165C 213.909,161.414 208.909,157.08 204.5,152C 202.212,151.178 199.878,150.511 197.5,150C 202.678,148.727 207.011,150.06 210.5,154C 218.613,158.558 226.947,162.892 235.5,167C 243.961,168.366 252.295,170.199 260.5,172.5C 260.638,166.996 259.805,161.662 258,156.5C 250.039,149.214 242.872,141.381 236.5,133C 229.618,129.448 223.284,125.115 217.5,120C 216.167,117.667 214.833,115.333 213.5,113C 217.074,110.995 219.408,112.162 220.5,116.5C 225.81,121.641 231.81,125.808 238.5,129C 242.491,131.989 245.324,135.822 247,140.5C 249.414,142.291 251.914,143.957 254.5,145.5C 254.833,144.833 255.167,144.167 255.5,143.5C 253.009,132.207 250.842,120.874 249,109.5C 247.365,108.274 245.865,106.941 244.5,105.5C 247.176,102.979 250.01,102.979 253,105.5C 255.284,123.173 258.95,140.506 264,157.5C 265.572,164.143 265.905,170.81 265,177.5C 268.078,183.991 271.412,190.325 275,196.5C 277.805,206.722 280.139,217.055 282,227.5C 284.474,233.252 287.14,238.919 290,244.5C 291.795,256.255 295.962,267.089 302.5,277C 310.772,280.335 315.605,286.501 317,295.5C 320.009,298.177 322.676,301.177 325,304.5C 339.851,317.348 355.017,329.848 370.5,342C 377.767,349.931 384.267,358.431 390,367.5C 391.079,369.394 392.413,369.727 394,368.5C 394.751,350.603 393.085,332.937 389,315.5C 386.068,309.289 382.402,303.623 378,298.5C 377.562,295.624 376.562,292.957 375,290.5C 369.333,283.5 363.667,276.5 358,269.5C 354,261.5 350,253.5 346,245.5C 336.621,230.743 328.288,215.409 321,199.5C 316.833,194 312.667,188.5 308.5,183C 297.885,175.39 286.219,170.057 273.5,167C 271.018,164.266 271.851,162.766 276,162.5C 289.174,165.754 301.174,171.421 312,179.5C 312.325,177.447 311.991,175.447 311,173.5C 308.077,167.985 305.41,162.318 303,156.5C 302.479,148.892 300.812,141.559 298,134.5C 297.285,129.6 296.452,124.767 295.5,120C 296.905,118.731 298.571,118.231 300.5,118.5C 302.829,130.814 304.996,143.147 307,155.5C 314.35,172.901 321.684,190.235 329,207.5C 335.938,219.433 343.271,231.1 351,242.5C 357.204,254.413 364.037,265.913 371.5,277C 373.344,278.182 375.177,279.349 377,280.5C 377.772,280.355 378.439,280.022 379,279.5C 382.449,265.809 382.282,252.309 378.5,239C 379.635,234.252 379.802,229.419 379,224.5C 375.402,211.041 371.402,197.708 367,184.5C 357.962,163.218 345.128,144.718 328.5,129C 321.157,126.997 315.157,122.997 310.5,117C 305.989,115.164 301.323,113.83 296.5,113C 291.36,107.365 285.694,102.198 279.5,97.5C 277.724,92.5569 274.391,89.0569 269.5,87C 266.833,83 263.5,79.6667 259.5,77C 261.442,74.099 263.775,73.9324 266.5,76.5C 271.148,79.9812 275.315,83.9812 279,88.5C 279.073,83.8084 277.74,79.4751 275,75.5C 274.459,65.1055 271.626,55.4389 266.5,46.5C 267.348,44.7172 268.681,44.2172 270.5,45C 275.471,53.4582 278.304,62.6248 279,72.5C 282.353,80.2241 284.687,88.2241 286,96.5C 289.317,99.9833 292.984,102.983 297,105.5C 297.945,105.095 298.612,104.428 299,103.5C 301.712,94.6431 300.712,86.3098 296,78.5C 295.608,75.8121 295.108,73.1454 294.5,70.5C 294.527,68.2956 295.527,67.4622 297.5,68C 298.936,74.0507 301.103,79.884 304,85.5C 304.592,93.5944 304.259,101.594 303,109.5C 309.032,110.428 313.865,113.261 317.5,118C 321.596,120.759 325.929,123.093 330.5,125C 339.236,133.066 347.236,141.733 354.5,151C 356.92,151.915 358.253,151.082 358.5,148.5C 356.921,142.825 356.587,137.158 357.5,131.5C 357.493,128.408 356.993,125.408 356,122.5C 350,113.833 344,105.167 338,96.5C 335.265,91.0341 333.099,85.3674 331.5,79.5C 324.862,73.0215 318.695,66.0215 313,58.5C 310.941,55.0508 309.441,51.3842 308.5,47.5C 305.312,45.1457 302.645,42.3124 300.5,39C 295.113,37.7424 294.613,35.9091 299,33.5C 306.835,37.1879 311.835,43.1879 314,51.5C 316.921,57.415 320.921,62.415 326,66.5C 327.439,68.2746 328.439,70.2746 329,72.5C 331.309,73.9752 333.476,75.6419 335.5,77.5C 337.105,83.3778 339.272,89.0445 342,94.5C 349.061,104.564 355.727,114.898 362,125.5C 362.882,139.201 364.215,152.867 366,166.5C 370.455,185.199 376.122,203.532 383,221.5C 383.657,228.407 384.49,235.24 385.5,242C 387.112,242.72 388.612,242.554 390,241.5C 397.307,223.556 405.641,206.222 415,189.5C 415.667,181.833 415.667,174.167 415,166.5C 411.42,156.353 407.087,146.686 402,137.5C 400.333,135.833 398.667,134.167 397,132.5C 391.967,123.48 386.967,114.48 382,105.5C 364.742,82.1575 349.909,57.3242 337.5,31C 338.593,27.88 340.093,27.7133 342,30.5C 351.16,48.1561 360.826,65.4894 371,82.5C 374.575,86.653 377.909,90.9863 381,95.5C 387.569,107.739 394.569,119.739 402,131.5C 403.011,132.337 404.178,132.67 405.5,132.5C 404.999,124.99 404.332,117.49 403.5,110C 403.848,106.133 404.014,102.299 404,98.5C 400.421,92.015 397.421,85.3483 395,78.5C 394.333,75.8333 393.667,73.1667 393,70.5C 382.817,57.4729 374.15,43.4729 367,28.5C 366.506,26.8659 366.34,25.1992 366.5,23.5C 367.822,23.33 368.989,23.6634 370,24.5C 372.923,30.0151 375.59,35.6818 378,41.5C 385.088,52.009 392.421,62.3424 400,72.5C 401.918,80.7705 404.585,88.7705 408,96.5C 408.198,111.654 408.865,126.987 410,142.5C 413.724,150.338 417.057,158.338 420,166.5C 420.687,168.555 421.854,170.221 423.5,171.5C 426.812,169.355 429.646,166.688 432,163.5C 438.293,153.577 442.96,142.91 446,131.5C 447.531,118.877 445.531,106.877 440,95.5C 434.384,85.9305 429.051,76.2638 424,66.5C 421.138,60.2481 418.472,53.9148 416,47.5C 414.333,45.5 412.667,43.5 411,41.5C 410.054,36.9419 408.054,32.9419 405,29.5C 404.51,28.2068 404.343,26.8734 404.5,25.5C 400.981,25.8132 399.647,24.4799 400.5,21.5C 403.083,20.0623 405.417,20.3956 407.5,22.5C 411.037,31.9098 415.871,40.5765 422,48.5C 426.999,62.1643 433.332,75.1643 441,87.5C 443.515,93.8871 446.182,100.22 449,106.5C 454.64,100.194 460.64,94.1937 467,88.5C 467.667,83.1667 467.667,77.8333 467,72.5C 465.868,59.7773 462.702,47.6106 457.5,36C 458.122,33.5204 459.456,33.0204 461.5,34.5C 463.33,37.4907 465.163,40.4907 467,43.5C 467.694,50.9453 469.028,58.2786 471,65.5C 471.5,72.4921 471.666,79.4921 471.5,86.5C 474.016,86.2447 476.35,85.4114 478.5,84C 481.333,81.1667 484.167,78.3333 487,75.5C 488.462,69.447 490.129,63.447 492,57.5C 492.215,54.1965 492.382,51.0299 492.5,48C 495.588,47.4121 497.255,48.7455 497.5,52C 495.545,62.1203 492.712,71.9536 489,81.5C 486.833,83.6667 484.667,85.8333 482.5,88C 478.287,90.6 474.287,93.4333 470.5,96.5C 464.423,98.9519 458.923,102.285 454,106.5C 452.937,108.916 452.104,111.416 451.5,114C 450.976,119.239 450.976,124.572 451.5,130C 450.684,131.923 450.017,133.923 449.5,136C 449.85,137.257 450.517,137.591 451.5,137C 460.742,126.045 472.409,119.212 486.5,116.5C 487,117.792 487.167,119.459 487,121.5C 470.97,127.191 456.97,136.191 445,148.5C 441.3,158.518 435.633,167.185 428,174.5C 419.062,193.281 409.728,211.948 400,230.5C 397.775,237.235 395.941,244.068 394.5,251C 394.849,254.244 395.515,257.41 396.5,260.5C 393.242,277.736 392.742,295.069 395,312.5C 396.373,315.561 398.54,317.394 401.5,318C 407.087,302.892 413.421,288.058 420.5,273.5C 424.245,268.437 428.078,263.437 432,258.5C 434.333,256.833 436.667,255.167 439,253.5C 444.638,240.546 450.638,227.879 457,215.5C 456.807,198.74 462.14,184.073 473,171.5C 476.66,160.179 481.66,149.512 488,139.5C 489.196,133.049 490.863,126.716 493,120.5C 503.446,103.113 514.279,85.9465 525.5,69C 527.725,66.9968 529.392,67.4968 530.5,70.5C 521.584,80.6509 514.417,91.9842 509,104.5C 503.567,111.7 498.9,119.366 495,127.5C 494.74,131.25 494.073,134.916 493,138.5C 488.175,146.301 484.509,154.634 482,163.5C 476.734,173.757 471.067,183.757 465,193.5C 462.376,200.093 462.043,206.76 464,213.5C 474.735,201.611 486.402,190.611 499,180.5C 501.588,176.326 503.921,171.993 506,167.5C 513.623,159.508 521.29,151.508 529,143.5C 532.862,135.77 536.195,127.77 539,119.5C 544.969,110.226 549.303,100.226 552,89.5C 552.893,88.2888 553.726,88.2888 554.5,89.5C 552.799,100.564 548.632,110.564 542,119.5C 540.655,121.83 540.488,124.163 541.5,126.5C 548.314,120.263 555.314,114.263 562.5,108.5C 562.833,108.833 563.167,109.167 563.5,109.5C 559.627,113.209 556.294,117.376 553.5,122C 547.693,125.327 542.526,129.494 538,134.5C 534.848,140.801 531.182,146.801 527,152.5C 520.167,158 514,164.167 508.5,171C 513.835,169.516 519.168,167.682 524.5,165.5C 526.704,165.527 527.538,166.527 527,168.5C 520.349,171.909 513.516,174.909 506.5,177.5C 504.062,181.442 501.062,184.942 497.5,188C 487.651,196.187 478.151,204.687 469,213.5C 462.036,221.416 457.869,230.416 456.5,240.5C 472.21,234.231 488.544,231.064 505.5,231C 507.608,230.64 509.608,229.973 511.5,229C 517.794,216.911 523.961,204.745 530,192.5C 531.115,184.681 532.781,177.014 535,169.5C 544.825,160.683 554.991,152.183 565.5,144C 571.159,141.395 576.826,138.895 582.5,136.5C 584.283,137.348 584.783,138.681 584,140.5C 579.021,143.072 573.854,145.238 568.5,147C 557.991,155.183 547.825,163.683 538,172.5C 536.935,181.464 534.935,190.464 532,199.5C 528.729,206.93 524.729,213.93 520,220.5C 519.443,222.615 518.609,224.615 517.5,226.5C 517.833,226.833 518.167,227.167 518.5,227.5C 535.668,221.679 548.834,211.013 558,195.5C 568.158,188.009 576.158,178.676 582,167.5C 584.743,165.212 587.577,163.045 590.5,161C 592.345,159.872 594.345,159.372 596.5,159.5C 596.5,160.833 596.5,162.167 596.5,163.5C 595.448,163.351 594.448,163.517 593.5,164C 590.937,166.53 588.103,168.697 585,170.5C 581.691,178.8 576.524,185.633 569.5,191C 578.001,192.217 586.168,191.051 594,187.5C 596.341,188.007 596.841,189.174 595.5,191C 585.135,195.125 574.468,196.958 563.5,196.5C 552.563,213.482 537.563,225.482 518.5,232.5C 502.521,235.141 486.521,237.641 470.5,240C 461.328,242.473 453.161,246.639 446,252.5C 436.204,263.62 427.204,275.287 419,287.5C 412.994,299.194 408.994,311.528 407,324.5C 406.333,340.5 406.333,356.5 407,372.5C 407.414,372.957 407.914,373.291 408.5,373.5C 415.889,363.596 422.722,353.263 429,342.5C 432.584,339.621 436.084,336.621 439.5,333.5 Z"/></g>
<g><path style="opacity:0.945" fill="#0e0d0f" d="M 300.5,286.5 C 301.586,286.62 302.253,287.287 302.5,288.5C 302.167,289.167 301.833,289.833 301.5,290.5C 299.974,290.006 298.641,289.339 297.5,288.5C 299.179,288.715 300.179,288.048 300.5,286.5 Z"/></g>
<g><path style="opacity:0.979" fill="#080808" d="M 246.5,289.5 C 249.135,290.833 251.469,292.667 253.5,295C 253,295.167 252.5,295.333 252,295.5C 249.264,294.239 247.431,292.239 246.5,289.5 Z"/></g>
<g><path style="opacity:0.982" fill="#0b0b0c" d="M 390.5,309.5 C 391.586,309.62 392.253,310.287 392.5,311.5C 392.167,312.167 391.833,312.833 391.5,313.5C 390.571,312.311 390.238,310.978 390.5,309.5 Z"/></g>
<g><path style="opacity:0.981" fill="#0b0b0c" d="M 392.5,315.5 C 393.5,315.5 394.5,315.5 395.5,315.5C 395.786,317.277 396.453,318.944 397.5,320.5C 397.167,321.167 396.833,321.833 396.5,322.5C 395.015,320.148 393.682,317.814 392.5,315.5 Z"/></g>
<g><path style="opacity:1" fill="#111012" d="M 440.5,330.5 C 441.885,331.947 441.552,332.947 439.5,333.5C 440.11,332.609 440.443,331.609 440.5,330.5 Z"/></g>
</svg>
